<?xml version="1.0" encoding="UTF-8"?>
<svg xmlns="http://www.w3.org/2000/svg" xmlns:xlink="http://www.w3.org/1999/xlink" version="1.1" id="Ebene_1" x="0px" y="0px" viewBox="0 0 140 70" style="enable-background:new 0 0 140 70;" xml:space="preserve">
<style type="text/css">
	.st0{fill:none;}
	.st1{fill:#00CABE;}
	.st2{fill:none;}
	.st3{fill:#FFFFFF;}
</style>
<rect x="1.7" class="st0" width="121.9" height="70"></rect>
<rect x="53.3" y="37.2" class="st1" width="11.2" height="5"></rect>
<path class="st3" d="M16.5,53.8c0.8-0.3,1.5-0.7,2-1.3c1-1,1.5-2.3,1.5-3.9c0-3.8-3.2-6.4-8-6.4H1.7v26.7h10.5c5,0,8.6-3.5,8.6-8.3  C20.9,57.5,19.2,55,16.5,53.8 M6.6,46.8h5.1c2,0,3.3,1.2,3.3,2.9c0,2-1.3,3.3-3.3,3.3H6.6C6.6,53,6.6,46.8,6.6,46.8z M12.1,64.4H6.6  v-7h5.5c2.3,0,3.8,1.3,3.8,3.3C15.9,62.8,14.3,64.4,12.1,64.4 M114.1,53c0.4-0.5,1.2-1.4,2.4-2.8l7.1-8h-6.2l-6.4,7.1  c-1.9,2.1-3.1,3.8-3.8,5.8V42.2h-4.9v26.7h4.9v-0.6c0-4.7,0.3-7.3,3.5-11.4l7.3,12h5.8L114.1,53L114.1,53z M42.4,57  c-0.6-0.7-1.8-1.3-2.8-1.5c0.4,0,1.9-0.7,2.8-1.6c1.2-1.2,1.8-2.8,1.8-4.6c0-2-0.8-3.7-2.2-5c-1.5-1.4-3.7-2.1-6.2-2.1H24.9v26.7  h4.9v-9.7h5.6c2.4,0,3.6,1.1,3.6,3.2v1.2c0,2.3,0.3,3.8,1,5.4h5.3c-0.7-1.5-1.5-2.5-1.5-6C43.9,59.8,43.6,58.4,42.4,57 M35.1,54.6  h-5.3v-7.8H35c2.7,0,4.3,1.4,4.3,3.8C39.2,52.9,37.5,54.6,35.1,54.6 M64.4,59.2c0,3.4-2.1,5.5-5.6,5.5c-3.5,0-5.6-2-5.6-5.5v-17  h-4.9v17.1c0,6,4.3,10.2,10.5,10.2c3,0,5.7-1,7.6-2.9c1.9-1.8,2.9-4.4,2.9-7.3V42.2h-4.9L64.4,59.2L64.4,59.2z M94.1,58.8  c-1,3.6-4.2,5.9-8,5.9c-2.4,0-4.6-0.9-6.2-2.5c-1.6-1.7-2.5-4-2.5-6.6c0-5.3,3.6-9.1,8.7-9.1c3.5,0,6.5,1.9,7.6,4.9L94,52l4.3-2.3  l-0.2-0.5c-2-4.7-6.5-7.5-12-7.5c-3.8,0-7.3,1.4-9.8,4c-2.5,2.5-3.9,6-3.9,9.8c0,8,5.8,13.8,13.7,13.8c5.8,0,10.7-3.4,12.5-8.6  l0.2-0.5l-4.4-2.2L94.1,58.8L94.1,58.8z M58.1,14.7l8.8,22.5h8.3V10.5h-4.8V33l-8.9-22.6h-8.2l0,21.7h4.9  C58.1,32.2,58.1,14.7,58.1,14.7z M23.7,14c-2.6-2.6-6.1-4-9.9-4C10,10,6.5,11.4,4,14c-2.6,2.6-4,6.1-4,9.9c0,7.9,5.9,13.8,13.8,13.8  c3.8,0,7.4-1.4,9.9-4c2.6-2.6,4-6.1,4-9.9C27.7,20.1,26.3,16.6,23.7,14 M20.1,30.4c-1.6,1.6-3.8,2.5-6.3,2.5s-4.6-0.9-6.3-2.5  c-1.7-1.7-2.6-4-2.6-6.6c0-5.2,3.8-9.1,8.8-9.1s8.8,3.9,8.8,9.1C22.7,26.4,21.7,28.7,20.1,30.4 M42.7,21.5l-3.8-1l0,0  c-2.2-0.5-3.2-1.4-3.2-3c0-2.1,2.2-3.1,4.3-3.1c2.5,0,4.3,1.3,4.8,3.3l0.1,0.6l4.5-1.3l-0.1-0.5C48.5,12.5,44.9,10,40,10  c-2.7,0-5,0.8-6.7,2.2c-1.6,1.4-2.5,3.3-2.5,5.4c0,3.9,2.4,6.6,6.9,7.6l3.8,0.9c2.3,0.5,3.4,1.7,3.4,3.4c0,2.1-2,3.5-4.9,3.5  c-3,0-5.1-1.4-5.7-3.9l-0.1-0.6l-4.6,1.4l0.1,0.5c1.1,4.6,5,7.3,10.3,7.3c3,0,5.5-0.8,7.3-2.4c1.7-1.5,2.6-3.5,2.6-5.7  C49.9,25.5,47.3,22.7,42.7,21.5 M97.6,37.2h5.1l-8.5-26.7h-8l-8.5,26.7h5.1l1.6-5H96L97.6,37.2z M90.2,14.5l4.4,13h-8.8L90.2,14.5  L90.2,14.5z"></path>
<path class="st1" d="M139.7,16.1c0-8.9-7.2-16.1-16.1-16.1s-16.1,7.2-16.1,16.1s7.2,16.1,16.1,16.1S139.7,25,139.7,16.1 M124.4,28.3  c0-1,0.1-2,0.4-2.9c0.2-0.5,0.4-1,0.4-1.7s-0.2-1.2-0.4-1.7c-0.3-0.7-0.4-1.5-0.5-2.3c0.8-0.2,1.6-0.6,2.1-1.2  c0.7,0.5,1.3,1,1.7,1.6c0.3,0.4,0.7,0.9,1.2,1.2c0.6,0.3,1.1,0.4,1.7,0.5c0.9,0.1,1.9,0.6,2.7,1.1C131.7,26,128.3,28.1,124.4,28.3   M123.6,14.6c0.8,0,1.5,0.7,1.5,1.5c0,0.8-0.7,1.5-1.5,1.5c-0.8,0-1.5-0.7-1.5-1.5C122.1,15.3,122.8,14.6,123.6,14.6 M134.6,21.5  c-0.9-0.5-1.7-1.1-2.3-1.8c-0.3-0.4-0.7-0.9-1.2-1.2c-0.6-0.3-1.1-0.4-1.7-0.5c-0.8-0.1-1.5-0.4-2.3-0.7c0.1-0.4,0.2-0.8,0.2-1.2  c0-0.4-0.1-0.8-0.2-1.2c0.7-0.3,1.5-0.6,2.3-0.7c0.5-0.1,1.1-0.1,1.7-0.5c0.6-0.3,0.9-0.8,1.2-1.2c0.6-0.8,1.4-1.3,2.3-1.8  c0.8,1.6,1.3,3.5,1.3,5.4C135.9,18,135.4,19.9,134.6,21.5 M133.8,9.3c-0.9,0.5-1.8,1-2.8,1.1c-0.5,0.1-1.1,0.1-1.7,0.5  c-0.6,0.3-0.9,0.8-1.2,1.2c-0.5,0.6-1.1,1.1-1.7,1.6c-0.5-0.6-1.3-1.1-2.1-1.2c0.1-0.8,0.2-1.6,0.5-2.3c0.2-0.5,0.4-1,0.4-1.7  s-0.2-1.2-0.4-1.7c-0.4-0.9-0.4-1.9-0.4-2.9C128.4,4.1,131.8,6.2,133.8,9.3 M122.8,3.9c0,1-0.1,2-0.4,2.9c-0.2,0.5-0.4,1-0.4,1.7  c0,0.7,0.2,1.2,0.4,1.7c0.3,0.7,0.4,1.5,0.5,2.3c-0.8,0.2-1.6,0.6-2.1,1.2c-0.7-0.5-1.3-1-1.7-1.6c-0.3-0.4-0.7-0.9-1.2-1.2  c-0.6-0.3-1.1-0.4-1.7-0.5c-0.9-0.1-1.9-0.6-2.7-1.1C115.5,6.2,118.9,4.1,122.8,3.9 M112.6,10.7c0.9,0.5,1.7,1.1,2.3,1.8  c0.3,0.4,0.7,0.9,1.2,1.2c0.6,0.3,1.1,0.4,1.7,0.5c0.8,0.1,1.5,0.4,2.3,0.7c-0.1,0.4-0.2,0.8-0.2,1.2c0,0.4,0.1,0.8,0.2,1.2  c-0.7,0.3-1.5,0.6-2.3,0.7c-0.5,0.1-1.1,0.1-1.7,0.5c-0.6,0.3-0.9,0.8-1.2,1.2c-0.6,0.8-1.4,1.3-2.3,1.8c-0.8-1.6-1.3-3.5-1.3-5.4  C111.4,14.2,111.8,12.3,112.6,10.7 M113.4,22.9c0.9-0.5,1.8-1,2.8-1.1c0.5-0.1,1.1-0.1,1.7-0.5c0.6-0.3,0.9-0.8,1.2-1.2  c0.5-0.6,1.1-1.1,1.7-1.6c0.5,0.6,1.3,1.1,2.1,1.2c-0.1,0.8-0.2,1.6-0.5,2.3c-0.2,0.5-0.4,1-0.4,1.7s0.2,1.2,0.4,1.7  c0.4,0.9,0.4,1.9,0.4,2.9C118.9,28.1,115.5,26,113.4,22.9"></path>
<rect class="st2" width="139.7" height="70"></rect>
</svg>
